<?xml version="1.0" encoding="utf-8"?>
<!-- Generator: Adobe Illustrator 19.2.0, SVG Export Plug-In . SVG Version: 6.00 Build 0)  -->
<svg version="1.1" id="Layer_1" xmlns="http://www.w3.org/2000/svg" xmlns:xlink="http://www.w3.org/1999/xlink" x="0px" y="0px"
	 viewBox="0 0 1920 1080" style="enable-background:new 0 0 1920 1080;" xml:space="preserve">
<style type="text/css">
	.st0{fill:#25799E;}
	.st1{fill:#F4CC21;}
	.st2{fill:#FCEB54;}
	.st3{fill:#F2BB22;}
	.st4{fill:#0E5177;}
	.st5{fill:#FFF9DE;}
	.st6{fill:#754C24;}
	.st7{fill:none;stroke:#754C24;stroke-width:20;stroke-linecap:round;stroke-miterlimit:10;}
	.st8{fill:none;stroke:#DD434E;stroke-width:20;stroke-linecap:round;stroke-miterlimit:10;}
	.st9{fill:#DD434E;}
</style>
<g>
	<path class="st0" d="M826.6,395.4l-25.5,16.6L693.2,246.9c-4.6-7-2.6-16.5,4.4-21.1l0,0c7-4.6,16.5-2.6,21.1,4.4L826.6,395.4z"/>
	<path class="st1" d="M708.3,242.2c-49.2,32.2-62.8,98.7-30.9,147.4l178.3-116.5C823.9,224.4,757.6,210.1,708.3,242.2z"/>
	<path class="st2" d="M708.3,242.2c-3.4,2.2-6.6,4.6-9.6,7.1c47.8-24.1,107.4-8.6,137.1,36.9l19.9-13
		C823.9,224.4,757.6,210.1,708.3,242.2z"/>
	<path class="st3" d="M869.3,298.8L695.5,412.4c-6.7,4.4-15.6,2.5-20-4.2v0c-4.4-6.7-2.5-15.6,4.2-20l173.8-113.5
		c6.7-4.4,15.6-2.5,20,4.2v0C877.8,285.5,876,294.5,869.3,298.8z"/>
</g>
<g>
	<path class="st0" d="M1093.5,395.4l25.5,16.6l107.9-165.2c4.6-7,2.6-16.5-4.4-21.1l0,0c-7-4.6-16.5-2.6-21.1,4.4L1093.5,395.4z"/>
	<path class="st1" d="M1211.7,242.2c49.2,32.2,62.8,98.7,30.9,147.4l-178.3-116.5C1096.1,224.4,1162.5,210.1,1211.7,242.2z"/>
	<path class="st2" d="M1211.7,242.2c3.4,2.2,6.6,4.6,9.6,7.1c-47.8-24.1-107.4-8.6-137.1,36.9l-19.9-13
		C1096.1,224.4,1162.5,210.1,1211.7,242.2z"/>
	<path class="st3" d="M1050.8,298.8l173.8,113.5c6.7,4.4,15.6,2.5,20-4.2l0,0c4.4-6.7,2.5-15.6-4.2-20l-173.8-113.5
		c-6.7-4.4-15.6-2.5-20,4.2v0C1042.2,285.5,1044.1,294.5,1050.8,298.8z"/>
</g>
<rect x="951.1" y="263.5" class="st0" width="17.9" height="85.6"/>
<path class="st4" d="M926.1,278.1L926.1,278.1c0-8.1,6.5-14.6,14.6-14.6h38.7c8.1,0,14.6,6.5,14.6,14.6v0c0,8.1-6.5,14.6-14.6,14.6
	h-38.7C932.6,292.7,926.1,286.1,926.1,278.1z"/>
<path class="st0" d="M1158.3,942.5l-72.9-89.8l91.3-40.7l18.1,114.3C1198.1,947.1,1171.6,959,1158.3,942.5z"/>
<path class="st0" d="M765.5,942.5l72.9-89.8L747.1,812L729,926.2C725.7,947.1,752.2,959,765.5,942.5z"/>
<circle class="st4" cx="960" cy="631" r="303.8"/>
<circle class="st5" cx="960" cy="631" r="244.8"/>
<g>
	<circle class="st6" cx="960" cy="441" r="15.3"/>
	<circle class="st6" cx="960" cy="825.7" r="15.3"/>
	<circle class="st6" cx="1152.3" cy="633.3" r="15.3"/>
	<circle class="st6" cx="767.7" cy="633.3" r="15.3"/>
	<path class="st6" d="M1051.4,481.3L1051.4,481.3c-2.4-1.4-3.1-4.5-1.7-6.9l10.3-17.1c1.4-2.4,4.5-3.1,6.9-1.7l0,0
		c2.4,1.4,3.1,4.5,1.7,6.9l-10.3,17.1C1056.8,482,1053.7,482.7,1051.4,481.3z"/>
	<path class="st6" d="M853.2,811.4L853.2,811.4c-2.4-1.4-3.1-4.5-1.7-6.9l10.3-17.1c1.4-2.4,4.5-3.1,6.9-1.7l0,0
		c2.4,1.4,3.1,4.5,1.7,6.9L860,809.7C858.6,812.1,855.6,812.8,853.2,811.4z"/>
	<path class="st6" d="M1109.5,537.9L1109.5,537.9c-1.5-2.3-0.8-5.4,1.5-6.9l16.9-10.8c2.3-1.5,5.4-0.8,6.9,1.5l0,0
		c1.5,2.3,0.8,5.4-1.5,6.9l-16.9,10.8C1114.1,540.9,1111,540.2,1109.5,537.9z"/>
	<path class="st6" d="M785.2,745.3L785.2,745.3c-1.5-2.3-0.8-5.4,1.5-6.9l16.9-10.8c2.3-1.5,5.4-0.8,6.9,1.5l0,0
		c1.5,2.3,0.8,5.4-1.5,6.9l-16.9,10.8C789.8,748.3,786.7,747.6,785.2,745.3z"/>
	<path class="st6" d="M1131,742l-17.1-10.3c-2.4-1.4-3.1-4.5-1.7-6.9l0,0c1.4-2.4,4.5-3.1,6.9-1.7l17.1,10.3
		c2.4,1.4,3.1,4.5,1.7,6.9l0,0C1136.5,742.7,1133.4,743.4,1131,742z"/>
	<path class="st6" d="M801,543.8l-17.1-10.3c-2.4-1.4-3.1-4.5-1.7-6.9l0,0c1.4-2.4,4.5-3.1,6.9-1.7l17.1,10.3
		c2.4,1.4,3.1,4.5,1.7,6.9l0,0C806.4,544.5,803.3,545.3,801,543.8z"/>
	<path class="st6" d="M1064.9,806.8l-10.8-16.9c-1.5-2.3-0.8-5.4,1.5-6.9l0,0c2.3-1.5,5.4-0.8,6.9,1.5l10.8,16.9
		c1.5,2.3,0.8,5.4-1.5,6.9l0,0C1069.5,809.8,1066.4,809.1,1064.9,806.8z"/>
	<path class="st6" d="M857.5,482.4l-10.8-16.9c-1.5-2.3-0.8-5.4,1.5-6.9l0,0c2.3-1.5,5.4-0.8,6.9,1.5l10.8,16.9
		c1.5,2.3,0.8,5.4-1.5,6.9l0,0C862,485.4,859,484.8,857.5,482.4z"/>
</g>
<line class="st7" x1="960" y1="633.3" x2="881.2" y2="513.4"/>
<line class="st8" x1="960" y1="634" x2="1076" y2="634"/>
<circle class="st9" cx="960" cy="633.3" r="34.1"/>
<path class="st1" d="M612.4,245.1L612.4,245.1c-4.2-0.2-7.3-4-6.6-8.1c2-12.4,8.5-37,28.7-55.8c22.7-21,43.2-27.1,54.3-28.9
	c4.3-0.7,8.2,2.8,8,7.2l0,0.1c-0.2,3.3-2.6,6-5.8,6.6c-8.7,1.4-26.7,6.6-46.9,25.3c-17,15.8-22.6,37.4-24.4,47.8
	C619.1,242.7,616,245.2,612.4,245.1z"/>
<path class="st1" d="M583.5,202.2L583.5,202.2c-4.3-0.5-7-4.7-5.9-8.8c2.5-9.2,8.4-24.8,21.8-37.5c13.6-13,30.6-19,40.3-21.6
	c4-1.1,8.1,1.6,8.7,5.7l0,0.1c0.5,3.5-1.7,6.9-5.1,7.8c-8.1,2.2-22.9,7.3-34.2,18.1c-11,10.6-15.9,23.7-17.9,31.1
	C590.2,200.5,587,202.6,583.5,202.2z"/>
<path class="st1" d="M1307.6,245.1c-3.5,0.2-6.6-2.3-7.2-5.8c-1.8-10.4-7.3-32-24.4-47.8c-20.4-18.9-38.2-24-46.9-25.3
	c-3.3-0.5-5.7-3.3-5.9-6.6v0c-0.2-4.4,3.7-7.9,8-7.2c11,1.7,31.6,7.8,54.3,28.9c20.2,18.7,26.6,43.4,28.7,55.8
	C1314.9,241.1,1311.8,244.9,1307.6,245.1L1307.6,245.1z"/>
<path class="st1" d="M1336.5,202.2c-3.5,0.5-6.7-1.7-7.6-5.1c-2.1-7.5-7-20.6-17.9-31.1c-11.3-10.8-26-16-34.2-18.1
	c-3.4-0.9-5.6-4.3-5.1-7.8l0-0.1c0.6-4.1,4.7-6.8,8.7-5.7c9.7,2.5,26.7,8.6,40.3,21.6c13.3,12.8,19.3,28.3,21.8,37.5
	C1343.5,197.5,1340.7,201.6,1336.5,202.2l0.6-0.1L1336.5,202.2z"/>
</svg>
